<svg xmlns="http://www.w3.org/2000/svg" xmlns:xlink="http://www.w3.org/1999/xlink" viewBox="0 0 193.58 140.21">
  <defs>
    <style>
      .cls-1, .cls-2 {
        fill: #fff;
        stroke-linecap: round;
        stroke-linejoin: round;
      }

      .cls-1 {
        stroke-width: 2px;
        stroke: url(#linear-gradient);
      }

      .cls-2 {
        stroke-width: 0.75px;
        stroke: url(#linear-gradient-2);
      }

      .cls-3, .cls-4 {
        font-size: 5.07px;
        font-family: LucidaHandwriting-Italic, Lucida Handwriting;
        font-style: italic;
      }

      .cls-15, .cls-3, .cls-4 {
        fill: #615156;
      }

      .cls-3 {
        letter-spacing: -0.05em;
      }

      .cls-4 {
        letter-spacing: -0.05em;
      }

      .cls-5 {
        fill: #e79d71;
      }

      .cls-6 {
        fill: url(#linear-gradient-3);
      }

      .cls-7 {
        fill: url(#linear-gradient-4);
      }

      .cls-8 {
        fill: #fdebea;
      }

      .cls-9 {
        fill: url(#linear-gradient-5);
      }

      .cls-10 {
        fill: url(#linear-gradient-6);
      }

      .cls-11 {
        fill: url(#linear-gradient-7);
      }

      .cls-12 {
        fill: #7b6766;
      }

      .cls-13 {
        fill: #fad1d0;
      }

      .cls-14 {
        fill: #ba9c9a;
      }

      .cls-15 {
        font-size: 16.36px;
        font-family: MongolianBaiti, Mongolian Baiti;
      }

      .cls-16 {
        fill: url(#linear-gradient-8);
      }

      .cls-17 {
        fill: url(#linear-gradient-9);
      }

      .cls-18 {
        fill: url(#linear-gradient-10);
      }

      .cls-19 {
        fill: url(#linear-gradient-11);
      }
    </style>
    <linearGradient id="linear-gradient" x1="26.93" y1="70.11" x2="167.14" y2="70.11" gradientUnits="userSpaceOnUse">
      <stop offset="0" stop-color="#895a22"/>
      <stop offset="0.01" stop-color="#a6773e"/>
      <stop offset="0.02" stop-color="#c19257"/>
      <stop offset="0.04" stop-color="#d7a86c"/>
      <stop offset="0.06" stop-color="#e8b97c"/>
      <stop offset="0.08" stop-color="#f3c487"/>
      <stop offset="0.11" stop-color="#facb8d"/>
      <stop offset="0.19" stop-color="#fccd8f"/>
      <stop offset="0.26" stop-color="#f9cd90"/>
      <stop offset="0.32" stop-color="#eecc94"/>
      <stop offset="0.36" stop-color="#deca9a"/>
      <stop offset="0.37" stop-color="#dec998"/>
      <stop offset="0.38" stop-color="#d9b67a"/>
      <stop offset="0.4" stop-color="#d5a762"/>
      <stop offset="0.43" stop-color="#d39b4f"/>
      <stop offset="0.46" stop-color="#d19242"/>
      <stop offset="0.49" stop-color="#cf8d3a"/>
      <stop offset="0.56" stop-color="#cf8c38"/>
      <stop offset="0.58" stop-color="#d08f3d"/>
      <stop offset="0.62" stop-color="#d2994c"/>
      <stop offset="0.65" stop-color="#d6a865"/>
      <stop offset="0.69" stop-color="#dbbe87"/>
      <stop offset="0.7" stop-color="#deca9a"/>
      <stop offset="0.8" stop-color="#e9bf82"/>
      <stop offset="0.86" stop-color="#eebb79"/>
      <stop offset="0.88" stop-color="#e9b674"/>
      <stop offset="0.91" stop-color="#dba667"/>
      <stop offset="0.94" stop-color="#c48d51"/>
      <stop offset="0.97" stop-color="#a46a33"/>
      <stop offset="1" stop-color="#804412"/>
    </linearGradient>
    <linearGradient id="linear-gradient-2" x1="30.74" y1="70.11" x2="163.32" y2="70.11" xlink:href="#linear-gradient"/>
    <linearGradient id="linear-gradient-3" x1="77.86" y1="46.61" x2="117.06" y2="46.61" xlink:href="#linear-gradient"/>
    <linearGradient id="linear-gradient-4" x1="83.41" y1="24.67" x2="110.54" y2="24.67" xlink:href="#linear-gradient"/>
    <linearGradient id="linear-gradient-5" x1="85.54" y1="47.82" x2="109.32" y2="47.82" xlink:href="#linear-gradient"/>
    <linearGradient id="linear-gradient-6" x1="80.24" y1="46" x2="81.13" y2="46" xlink:href="#linear-gradient"/>
    <linearGradient id="linear-gradient-7" x1="80.72" y1="37.33" x2="84.72" y2="37.33" xlink:href="#linear-gradient"/>
    <linearGradient id="linear-gradient-8" x1="100.22" y1="120.28" x2="105.6" y2="120.28" xlink:href="#linear-gradient"/>
    <linearGradient id="linear-gradient-9" x1="112.36" y1="120.14" x2="118.56" y2="120.14" xlink:href="#linear-gradient"/>
    <linearGradient id="linear-gradient-10" x1="75.02" y1="120.6" x2="80.59" y2="120.6" xlink:href="#linear-gradient"/>
    <linearGradient id="linear-gradient-11" x1="87.61" y1="120.31" x2="93.1" y2="120.31" xlink:href="#linear-gradient"/>
  </defs>
  <g id="Layer_2" data-name="Layer 2">
    <g id="Layer_2-2" data-name="Layer 2">
      <g>
        <circle class="cls-1" cx="97.03" cy="70.11" r="69.11"/>
        <circle class="cls-2" cx="97.03" cy="70.11" r="65.91"/>
      </g>
      <text class="cls-3" transform="translate(66.08 110.95)">HOMEMADE SWEET TREATS</text>
      <text class="cls-4" transform="translate(58.47 51.52)">EST.</text>
      <text class="cls-4" transform="translate(123.43 51.52)">2020</text>
      <g>
        <g>
          <path class="cls-5" d="M72.57,23.88s.21-3-3.5-2.84C69.68,24.71,72.57,23.88,72.57,23.88Z"/>
          <path class="cls-5" d="M69.76,24.9c2.36,2.87,4.45.71,4.45.71s2.34-1.88-.31-4.49c-1.19,1.55-1,2.7-.63,3.46C72.55,24.1,71.41,23.85,69.76,24.9Z"/>
          <path class="cls-5" d="M75.47,27.18c-.92-.64-2.39-1-4.57.31,3,3.81,5.76,1.06,5.76,1.06s3.11-2.38-.26-5.86C74.8,24.67,75,26.18,75.47,27.18Z"/>
          <path class="cls-5" d="M77.65,30.38c-.93-.76-2.47-1.27-4.91-.05C75.6,34.65,78.81,32,78.81,32s3.51-2.29.21-6.29C77.15,27.64,77.19,29.27,77.65,30.38Z"/>
          <path class="cls-5" d="M81.68,28.84c-2.14,2.05-2.18,3.83-1.74,5.06-1-.88-2.62-1.52-5.34-.32,1.66,2.79,3.57,3.06,4.89,2.78a28.88,28.88,0,0,1,2.52-7C81.9,29.16,81.81,29,81.68,28.84Z"/>
          <path class="cls-5" d="M77.66,37A5.05,5.05,0,0,0,79,38.78c.14-.7.29-1.39.46-2.08A5.58,5.58,0,0,0,77.66,37Z"/>
          <path class="cls-5" d="M62.56,35s-1.39-2.66-4.47-.58C60.53,37.22,62.56,35,62.56,35Z"/>
          <path class="cls-5" d="M64.86,35.61s1-2.83-2.61-3.66c-.2,1.94.53,2.85,1.27,3.28-.86,0-2,.35-2.82,2.1C64.22,38.54,64.86,35.61,64.86,35.61Z"/>
          <path class="cls-5" d="M68.49,36.83s1.4-3.65-3.29-4.85c-.32,2.52.6,3.73,1.56,4.31-1.12-.07-2.57.39-3.74,2.65C67.56,40.63,68.49,36.83,68.49,36.83Z"/>
          <path class="cls-5" d="M72.1,38.6s1.8-3.79-3.11-5.47c-.56,2.67.33,4,1.3,4.74-1.18-.16-2.77.21-4.21,2.53C70.79,42.58,72.1,38.6,72.1,38.6Z"/>
          <path class="cls-5" d="M76,40.55s2.15-4-3.1-6.11c-.75,2.88.15,4.41,1.17,5.22-1.28-.23-3,.09-4.72,2.54C74.38,44.81,76,40.55,76,40.55Z"/>
          <path class="cls-5" d="M77,37.91c-.78,2.12-.22,3.34.49,4-1-.27-2.29-.16-3.75,1.57,2.19,1.43,3.62.83,4.4.15.16-1.35.39-2.81.67-4.28A5,5,0,0,0,77,37.91Z"/>
          <path class="cls-5" d="M79,38.78c0,.2-.08.4-.11.6"/>
          <path class="cls-5" d="M79.49,36.36c0,.12-.06.23-.08.34"/>
        </g>
        <g>
          <path class="cls-6" d="M105.27,65.88H88.68a6.54,6.54,0,0,1-5.14-2.48,20.92,20.92,0,0,1-5.68-14.54c0-5.51,2.16-17.82,5.69-21.38a.45.45,0,1,1,.64.64c-3.31,3.34-5.43,15.5-5.43,20.74a20,20,0,0,0,5.43,13.91A5.66,5.66,0,0,0,88.68,65h16.59a6.13,6.13,0,0,0,4.5-1.93,19.8,19.8,0,0,0,6.39-14.18c0-5.32-2.75-16.63-6.41-20.76a.46.46,0,0,1,0-.64.45.45,0,0,1,.64,0c3.85,4.35,6.63,15.78,6.63,21.36a20.72,20.72,0,0,1-6.66,14.83A7,7,0,0,1,105.27,65.88Z"/>
          <path class="cls-7" d="M97,30.33c-.55,0-13.56,0-13.56-2.63V21.65c0-2.6,13-2.63,13.56-2.63s13.57,0,13.57,2.63V27.7C110.54,30.3,97.53,30.33,97,30.33ZM84.32,27.68c.28.63,4.72,1.74,12.65,1.74s12.38-1.11,12.66-1.74v-5c-3,1.54-12.19,1.56-12.66,1.56s-9.69,0-12.65-1.56Zm0,0Zm0-6c.28.58,4.72,1.69,12.65,1.69s12.31-1.09,12.66-1.72c-.35-.63-4.78-1.72-12.66-1.72S84.6,21,84.32,21.66Z"/>
        </g>
        <path class="cls-8" d="M106.18,42.61c-1.83-2.32-4.15-4.55-7-5.15A1.12,1.12,0,0,1,98,39.2a1.11,1.11,0,0,0-1.25,1.57h0a1.12,1.12,0,0,1-1.71,1.36h0a1.12,1.12,0,0,0-1.82.88,1.11,1.11,0,0,1-2.12.48,1.12,1.12,0,0,0-2,0,1.12,1.12,0,0,1-1.79.34,20.69,20.69,0,0,0-.7,3.43c-.49,4.73.57,6.83,3.59,9.37,2.67,2,7.42,4.59,10.71,3.85,2.54-.58,4.37-2.76,5.81-4.93,1.26-1.89,2.41-4,2.39-6.29C109.09,46.79,107.7,44.55,106.18,42.61Z"/>
        <g>
          <g>
            <path class="cls-5" d="M97.43,47.83a2.19,2.19,0,0,1-1,.38,6.31,6.31,0,0,1-1.79,0,1.61,1.61,0,0,1-1.32-.78,5.09,5.09,0,0,1-.07-1.36,2.88,2.88,0,0,1-.07-.59,1.46,1.46,0,0,1,.18-.57,6.71,6.71,0,0,1,1.76-2.17,1.31,1.31,0,0,1,.66-.34,1.38,1.38,0,0,1,.72.15,4.66,4.66,0,0,1,2.73,2.91,1,1,0,0,1,0,.45,1.16,1.16,0,0,1-.34.54A12.72,12.72,0,0,1,97.43,47.83Z"/>
            <path class="cls-5" d="M100.94,44.39l-.4-.41a1.17,1.17,0,0,1-.36-.52.71.71,0,0,1,.18-.62,1.72,1.72,0,0,1,.52-.41A3,3,0,0,1,102,42a1.53,1.53,0,0,1,1.1.28,2.13,2.13,0,0,1,.42.52,1.39,1.39,0,0,1,.25.95,1.13,1.13,0,0,1-.26.48,2,2,0,0,1-.87.69,1.18,1.18,0,0,1-1.08-.14A4.71,4.71,0,0,1,100.94,44.39Z"/>
            <path class="cls-5" d="M103.47,52.45l.49-.27a1.34,1.34,0,0,1,.58-.2.72.72,0,0,1,.53.26,1.38,1.38,0,0,1,.23.51,2.32,2.32,0,0,1,.07,1,1.39,1.39,0,0,1-.56.87,2,2,0,0,1-.59.26,1.48,1.48,0,0,1-1,0,1,1,0,0,1-.37-.3,1.49,1.49,0,0,1-.4-.86,1,1,0,0,1,.41-.87A4.49,4.49,0,0,1,103.47,52.45Z"/>
            <path class="cls-5" d="M91.64,53l-.26-.25a.71.71,0,0,1-.22-.32.47.47,0,0,1,.11-.39,1.37,1.37,0,0,1,.33-.25,2,2,0,0,1,.67-.24,1,1,0,0,1,.68.18,1,1,0,0,1,.26.32.79.79,0,0,1,.15.59.67.67,0,0,1-.15.29,1.25,1.25,0,0,1-.55.42.68.68,0,0,1-.66-.08A1.76,1.76,0,0,1,91.64,53Z"/>
            <path class="cls-5" d="M89.83,46.67a3.59,3.59,0,0,0,.08,1.19.57.57,0,0,0,.2.43.58.58,0,0,0,.3.05H91a2.9,2.9,0,0,0,.66-.07.85.85,0,0,0,.51-.4,1.1,1.1,0,0,0,0-.57,3.58,3.58,0,0,0-.51-1.41.74.74,0,0,0-.18-.21.69.69,0,0,0-.69,0A2.4,2.4,0,0,0,89.83,46.67Z"/>
            <path class="cls-5" d="M95.73,54.91a1.91,1.91,0,0,0,1.55.85,4.11,4.11,0,0,0,1.83-.28,1.82,1.82,0,0,0,.82-.5,3,3,0,0,0,.1-2.3,2,2,0,0,0-1.26-.75,3.34,3.34,0,0,0-1.25-.2,3.39,3.39,0,0,0-1.55.66,1.22,1.22,0,0,0-.5.45,1.18,1.18,0,0,0-.08.59A5,5,0,0,0,95.73,54.91Z"/>
            <path class="cls-5" d="M102.77,47.45a1.44,1.44,0,0,0-.16.79,2.35,2.35,0,0,0,.62,1.53,1.64,1.64,0,0,0,1.37.35,3.21,3.21,0,0,0,1.32-.62,1.93,1.93,0,0,0,.93-1.31,1.87,1.87,0,0,0-.13-.71,4,4,0,0,0-.73-1.29.61.61,0,0,0-.21-.18.65.65,0,0,0-.34,0,2.65,2.65,0,0,0-2.67,1.47Z"/>
          </g>
          <path class="cls-9" d="M106.24,41c-1.88-2.37-4.22-4.64-7.26-5.32-.37-.08-.75.32-.52.66.41.61-.08,1.16-.73,1.08a1.62,1.62,0,0,0-1.62.67A1.8,1.8,0,0,0,96,39.7a.67.67,0,0,1-.25.82c-.33.23-.59.07-.91-.09,0,0-.12,0-.17,0s.14,0,0-.09a1.11,1.11,0,0,0-.36-.13,1.54,1.54,0,0,0-.85,0,1.61,1.61,0,0,0-1.06,1.25c-.07.48-.15,1-.8.94s-.67-.8-1.12-1.06a1.6,1.6,0,0,0-1.73.07c-.5.35-.81,1.47-1.58.82a.46.46,0,0,0-.76.2c-.85,2.85-1.37,6.36-.25,9.21,1,2.57,3.32,4.38,5.62,5.75,2.58,1.54,6,3.16,9.08,2.37A8.58,8.58,0,0,0,105,57.05a22.1,22.1,0,0,0,3.07-4.48,9.05,9.05,0,0,0,1.08-6.06A14,14,0,0,0,106.24,41c-.36-.46-1,.19-.64.64a13.68,13.68,0,0,1,2.55,4.56,7.54,7.54,0,0,1-.5,5.2,21.07,21.07,0,0,1-2.7,4.33,9.28,9.28,0,0,1-3.65,3c-2.76,1.06-6-.35-8.38-1.69-2.19-1.21-4.47-2.79-5.64-5.08a8.63,8.63,0,0,1-.79-4,19.17,19.17,0,0,1,.81-5.26l-.76.2a1.66,1.66,0,0,0,1.8.29,1.77,1.77,0,0,0,.68-.65c.21-.33.48-.61.91-.45s.4.49.62.73a1.48,1.48,0,0,0,.79.48,1.61,1.61,0,0,0,1.54-.45,1.57,1.57,0,0,0,.39-.73c.08-.38,0-.76.4-1a.84.84,0,0,1,.9.16h.06c.09,0,.08,0,0,0a1.67,1.67,0,0,0,.23.12,1.5,1.5,0,0,0,.51.11,1.62,1.62,0,0,0,1.55-1,1.65,1.65,0,0,0,0-1s-.09-.18,0-.07,0-.12,0-.15a.69.69,0,0,1,0-.67c.31-.47.8-.21,1.25-.25a1.53,1.53,0,0,0,1-.46,1.6,1.6,0,0,0,.19-2l-.52.66c2.9.65,5.09,2.84,6.87,5.09C106,42.1,106.59,41.45,106.24,41Z"/>
        </g>
        <g>
          <path class="cls-5" d="M81.49,56.82a1.46,1.46,0,0,1,.52-1.1A3.47,3.47,0,0,1,85.58,55a1.24,1.24,0,0,1,.77.58,1.35,1.35,0,0,1-.1,1l-1.38,3.68a2.55,2.55,0,0,1-3.44-1.63A15.24,15.24,0,0,1,81.49,56.82Z"/>
          <path class="cls-5" d="M106.17,58.84a3.09,3.09,0,0,0-.07,2.26,1.44,1.44,0,0,0,1.07.89c.89.14,1.41-.6,1.83-1.26l.9-1.45a.63.63,0,0,0,.13-.45c-.06-.19-.29-.27-.49-.32-.58-.13-1.25-.47-1.88-.57A1.34,1.34,0,0,0,106.17,58.84Z"/>
          <path class="cls-5" d="M90.06,61.42a1,1,0,0,0-.51.85c0,.63.17,1.4.64,1.55a1.29,1.29,0,0,0,1-.29l1-.61c.29-.19.63-.47.57-.82a.77.77,0,0,0-.26-.38A2.23,2.23,0,0,0,90.06,61.42Z"/>
          <path class="cls-5" d="M110.64,49.2a7.08,7.08,0,0,1,2.34-.77,1.18,1.18,0,0,1,.53,0,.92.92,0,0,1,.41.37,2,2,0,0,1-.25,2.39,2.35,2.35,0,0,1-2.39.55A1.88,1.88,0,0,1,110.64,49.2Z"/>
        </g>
        <g>
          <path class="cls-10" d="M80.67,47.38a.41.41,0,0,1-.41-.37,12,12,0,0,1,.06-2,.41.41,0,0,1,.45-.37.42.42,0,0,1,.36.45,11.22,11.22,0,0,0,0,1.87.41.41,0,0,1-.38.44Z"/>
          <path class="cls-11" d="M81.13,42.79h-.08a.41.41,0,0,1-.32-.48A49.23,49.23,0,0,1,84,32.06a.41.41,0,1,1,.69.45,49.22,49.22,0,0,0-3.13,10A.4.4,0,0,1,81.13,42.79Z"/>
        </g>
      </g>
      <g>
        <g>
          <g>
            <polygon class="cls-12" points="28.22 112.45 45.4 117.55 28.22 82.62 28.22 112.45"/>
            <polygon class="cls-12" points="165.36 112.45 148.19 117.55 165.36 82.62 165.36 112.45"/>
            <path class="cls-13" d="M165.36,82.62C151.67,76,126.1,71.56,96.79,71.56S41.92,76,28.22,82.62v29.83c13.7-6.61,39.26-11.06,68.57-11.06s54.88,4.45,68.57,11.06Z"/>
          </g>
          <g>
            <polygon class="cls-13" points="25.47 91.81 0 102.55 15.61 111.55 12.32 129.85 45.4 117.55 26.28 114.08 25.47 91.81"/>
            <polygon class="cls-14" points="25.47 91.81 28.22 90.71 28.22 112.45 45.4 117.55 26.28 114.08 25.47 91.81"/>
          </g>
          <g>
            <polygon class="cls-13" points="168.12 91.81 193.58 102.55 177.97 111.55 181.26 129.85 148.19 117.55 167.3 114.08 168.12 91.81"/>
            <polygon class="cls-14" points="148.19 117.55 165.36 112.45 165.36 91.02 168.12 91.81 167.3 114.08 148.19 117.55"/>
          </g>
        </g>
        <g>
          <ellipse class="cls-12" cx="36.84" cy="94.37" rx="1.42" ry="1.2"/>
          <ellipse class="cls-12" cx="157.1" cy="94.37" rx="1.42" ry="1.2"/>
        </g>
      </g>
      <text class="cls-15" transform="translate(54.19 93.55)">HomeBakery</text>
      <path class="cls-16" d="M104.18,120.5a4.31,4.31,0,0,0-2.16-2.82,1.43,1.43,0,0,0-.77-.22,1.24,1.24,0,0,0-1,1.29,3.32,3.32,0,0,0,.62,1.68,30.31,30.31,0,0,0,2.34,3.3c.39.46,1,1,1.52.7s.53-.78.57-1.26l.3-3.79c.09-1.16.08-2.54-.87-3.2a.58.58,0,0,0-.3-.13c-.24,0-.41.23-.51.44a4.35,4.35,0,0,0,0,3.93"/>
      <path class="cls-17" d="M116.64,120.24a6,6,0,0,0-3.1-2.46,1.18,1.18,0,0,0-.58-.09.92.92,0,0,0-.53,1.25,3.09,3.09,0,0,0,1,1.14,13.68,13.68,0,0,1,3.57,4.46l1.14-4.23a5.7,5.7,0,0,0,.18-3.55c-.29-.72-1.24-1.34-1.83-.83a1.3,1.3,0,0,0-.32.5,4,4,0,0,0,.06,3.22"/>
      <path class="cls-18" d="M78.25,119.36a4.41,4.41,0,0,0-1-1.5,1.49,1.49,0,0,0-1.66-.28,1.58,1.58,0,0,0-.42,2,7.87,7.87,0,0,0,1.39,1.77,7.09,7.09,0,0,1,1.56,3.35,17.77,17.77,0,0,0,2.38-6.15c.13-.72.12-1.64-.53-2a1.24,1.24,0,0,0-1.58.74,3.6,3.6,0,0,0-.09,1.93"/>
      <path class="cls-19" d="M90.49,118.78a1.37,1.37,0,0,0-1.57-1.51,1.79,1.79,0,0,0-1.29,2c.24,1.86,2.78,2.66,3.21,4.49a25.74,25.74,0,0,0,1.79-3.41,4.31,4.31,0,0,0,.47-1.91,1.59,1.59,0,0,0-1.1-1.5,1.19,1.19,0,0,0-1.15,2"/>
    </g>
  </g>
</svg>
